<mxfile host="www.draw.io" modified="2020-02-05T13:22:58.058Z" agent="Mozilla/5.0 (Macintosh; Intel Mac OS X 10_14_6) AppleWebKit/537.36 (KHTML, like Gecko) Chrome/79.0.3945.130 Safari/537.36" etag="ZTNpO_ILF1OeRBZp2eH0" version="12.6.5" type="github">
  <diagram id="6WdQNFewNc1khkmcoBYZ" name="Page-1">
    <mxGraphModel dx="1186" dy="764" grid="1" gridSize="10" guides="1" tooltips="1" connect="1" arrows="1" fold="1" page="1" pageScale="1" pageWidth="850" pageHeight="1100" math="0" shadow="0">
      <root>
        <mxCell id="0"/>
        <mxCell id="1" parent="0"/>
        <mxCell id="ZElb9SdDPXtM1rfK_ozZ-1" value="&lt;font style=&quot;font-size: 15px&quot;&gt;Receive&lt;br&gt;File Uploaded Message&lt;br&gt;&lt;div style=&quot;text-align: left&quot;&gt;&lt;span style=&quot;font-size: 14px&quot;&gt;TOPIC :&amp;nbsp;&lt;/span&gt;&lt;span style=&quot;color: rgb(139 , 0 , 0) ; background-color: rgb(255 , 255 , 254) ; font-family: &amp;#34;menlo&amp;#34; , &amp;#34;monaco&amp;#34; , &amp;#34;courier new&amp;#34; , monospace ; font-size: 12px ; white-space: pre&quot;&gt;cedas-test-v1.EMAIL&lt;/span&gt;&lt;span style=&quot;font-size: 14px&quot;&gt;&lt;br&gt;&lt;/span&gt;&lt;span style=&quot;font-size: 14px&quot;&gt;Message format:&amp;nbsp;&lt;/span&gt;&lt;/div&gt;&lt;/font&gt;&lt;pre style=&quot;margin-top: 0px ; margin-bottom: 0px ; white-space: pre-wrap ; color: rgb(23 , 43 , 77) ; text-align: left ; font-size: 13px&quot;&gt;{&lt;br&gt;  &quot;schemaVersion&quot;: &quot;0.1&quot;,&lt;br&gt;  &quot;eventSource&quot;: &quot;{projectId}:{deviceId}&quot;,&lt;br&gt;  &quot;eventTime&quot;: &quot;Date().toISOString()&quot;,&lt;br&gt;  &quot;payload&quot;: {&lt;/pre&gt;&lt;pre style=&quot;margin-top: 0px ; margin-bottom: 0px ; white-space: pre-wrap ; color: rgb(23 , 43 , 77) ; text-align: left ; font-size: 13px&quot;&gt;    &quot;status&quot;: &quot;new&quot;,&lt;br&gt;    &quot;filename&quot;: &quot;&amp;lt;file_name&amp;gt;&quot;,&lt;/pre&gt;&lt;pre style=&quot;margin-top: 0px ; margin-bottom: 0px ; white-space: pre-wrap ; color: rgb(23 , 43 , 77) ; text-align: left ; font-size: 13px&quot;&gt;    &quot;extension&quot;: &quot;.ecfr&quot;&lt;br&gt;  }&lt;br&gt;}&lt;/pre&gt;" style="rounded=0;whiteSpace=wrap;html=1;" parent="1" vertex="1">
          <mxGeometry x="353" y="90" width="450" height="220" as="geometry"/>
        </mxCell>
        <mxCell id="ZElb9SdDPXtM1rfK_ozZ-9" value="" style="edgeStyle=orthogonalEdgeStyle;rounded=0;orthogonalLoop=1;jettySize=auto;html=1;" parent="1" source="ZElb9SdDPXtM1rfK_ozZ-5" target="ZElb9SdDPXtM1rfK_ozZ-8" edge="1">
          <mxGeometry relative="1" as="geometry"/>
        </mxCell>
        <mxCell id="ZElb9SdDPXtM1rfK_ozZ-12" style="edgeStyle=orthogonalEdgeStyle;rounded=0;orthogonalLoop=1;jettySize=auto;html=1;entryX=0.002;entryY=0.46;entryDx=0;entryDy=0;entryPerimeter=0;" parent="1" source="ZElb9SdDPXtM1rfK_ozZ-5" target="ZElb9SdDPXtM1rfK_ozZ-11" edge="1">
          <mxGeometry relative="1" as="geometry"/>
        </mxCell>
        <mxCell id="ZElb9SdDPXtM1rfK_ozZ-5" value="&lt;font style=&quot;font-size: 15px&quot;&gt;File Name &lt;br&gt;contains CRC&lt;/font&gt;" style="rhombus;whiteSpace=wrap;html=1;" parent="1" vertex="1">
          <mxGeometry x="494" y="350" width="132" height="120" as="geometry"/>
        </mxCell>
        <mxCell id="ZElb9SdDPXtM1rfK_ozZ-6" value="" style="endArrow=classic;html=1;exitX=0.462;exitY=1.005;exitDx=0;exitDy=0;exitPerimeter=0;entryX=0.5;entryY=0;entryDx=0;entryDy=0;" parent="1" source="ZElb9SdDPXtM1rfK_ozZ-1" target="ZElb9SdDPXtM1rfK_ozZ-5" edge="1">
          <mxGeometry width="50" height="50" relative="1" as="geometry">
            <mxPoint x="420" y="380" as="sourcePoint"/>
            <mxPoint x="558" y="340" as="targetPoint"/>
          </mxGeometry>
        </mxCell>
        <mxCell id="ZElb9SdDPXtM1rfK_ozZ-16" style="edgeStyle=orthogonalEdgeStyle;rounded=0;orthogonalLoop=1;jettySize=auto;html=1;entryX=0.5;entryY=0;entryDx=0;entryDy=0;" parent="1" source="ZElb9SdDPXtM1rfK_ozZ-8" target="ZElb9SdDPXtM1rfK_ozZ-14" edge="1">
          <mxGeometry relative="1" as="geometry"/>
        </mxCell>
        <mxCell id="ZElb9SdDPXtM1rfK_ozZ-8" value="&lt;font style=&quot;font-size: 15px&quot;&gt;Compute CRC&lt;br&gt;&lt;/font&gt;" style="rounded=1;whiteSpace=wrap;html=1;" parent="1" vertex="1">
          <mxGeometry x="490" y="540" width="140" height="40" as="geometry"/>
        </mxCell>
        <mxCell id="ZElb9SdDPXtM1rfK_ozZ-10" value="&lt;font style=&quot;font-size: 15px&quot;&gt;Yes&lt;/font&gt;" style="text;html=1;strokeColor=none;fillColor=none;align=center;verticalAlign=middle;whiteSpace=wrap;rounded=0;" parent="1" vertex="1">
          <mxGeometry x="565" y="510" width="40" height="20" as="geometry"/>
        </mxCell>
        <mxCell id="ZElb9SdDPXtM1rfK_ozZ-11" value="&lt;font style=&quot;font-size: 15px&quot;&gt;Publish Error Message&lt;br&gt;&lt;div style=&quot;text-align: left&quot;&gt;&lt;span style=&quot;font-size: 14px&quot;&gt;TOPIC :&amp;nbsp;&lt;/span&gt;&lt;span style=&quot;color: rgb(139 , 0 , 0) ; font-family: &amp;#34;menlo&amp;#34; , &amp;#34;monaco&amp;#34; , &amp;#34;courier new&amp;#34; , monospace ; font-size: 12px ; white-space: pre ; background-color: rgb(255 , 255 , 254)&quot;&gt;cedas-test-v1.FILE_SERVICE&lt;/span&gt;&lt;span style=&quot;font-size: 14px&quot;&gt;&lt;br&gt;Message format:&amp;nbsp;&lt;/span&gt;&lt;/div&gt;&lt;/font&gt;&lt;pre style=&quot;margin-top: 0px ; margin-bottom: 0px ; white-space: pre-wrap ; color: rgb(23 , 43 , 77) ; text-align: left ; font-size: 13px&quot;&gt;&lt;pre style=&quot;margin-top: 0px ; margin-bottom: 0px ; white-space: pre-wrap ; font-size: 14px&quot;&gt;{&lt;br&gt;  &quot;schemaVersion&quot;: &quot;1.1&quot;,&lt;/pre&gt;&lt;pre style=&quot;margin-top: 0px ; margin-bottom: 0px ; white-space: pre-wrap ; font-size: 14px&quot;&gt;  &quot;eventName&quot;: &quot;ecfr&quot;,&lt;br&gt;  &quot;eventSource&quot;: &quot;file-service&quot;,&lt;br&gt;  &quot;eventTime&quot;: &quot;Date().toISOString()&quot;,&lt;br&gt;  &quot;payload&quot;: {&lt;br&gt;	&quot;status&quot;: &quot;failed&quot;,&lt;/pre&gt;&lt;pre style=&quot;margin-top: 0px ; margin-bottom: 0px ; white-space: pre-wrap ; font-size: 14px&quot;&gt;	&quot;message&quot;: &quot;CRC Not Found in FileName&quot;,&lt;/pre&gt;&lt;pre style=&quot;margin-top: 0px ; margin-bottom: 0px ; white-space: pre-wrap ; font-size: 14px&quot;&gt;	&quot;filename&quot;: &quot;&amp;lt;file_name&amp;gt;&quot;&lt;br&gt;  }&lt;br&gt;}&lt;/pre&gt;&lt;/pre&gt;" style="rounded=0;whiteSpace=wrap;html=1;" parent="1" vertex="1">
          <mxGeometry x="852" y="295" width="450" height="250" as="geometry"/>
        </mxCell>
        <mxCell id="ZElb9SdDPXtM1rfK_ozZ-13" value="&lt;font style=&quot;font-size: 15px&quot;&gt;No&lt;/font&gt;" style="text;html=1;strokeColor=none;fillColor=none;align=center;verticalAlign=middle;whiteSpace=wrap;rounded=0;" parent="1" vertex="1">
          <mxGeometry x="662" y="390" width="40" height="20" as="geometry"/>
        </mxCell>
        <mxCell id="ZElb9SdDPXtM1rfK_ozZ-21" style="edgeStyle=orthogonalEdgeStyle;rounded=0;orthogonalLoop=1;jettySize=auto;html=1;" parent="1" source="ZElb9SdDPXtM1rfK_ozZ-14" target="ZElb9SdDPXtM1rfK_ozZ-20" edge="1">
          <mxGeometry relative="1" as="geometry"/>
        </mxCell>
        <mxCell id="ZElb9SdDPXtM1rfK_ozZ-14" value="&lt;span style=&quot;font-size: 15px&quot;&gt;Check &lt;br&gt;Computed CRC with CRC from File name&lt;/span&gt;" style="rhombus;whiteSpace=wrap;html=1;" parent="1" vertex="1">
          <mxGeometry x="449" y="650" width="222" height="110" as="geometry"/>
        </mxCell>
        <mxCell id="ZElb9SdDPXtM1rfK_ozZ-17" style="edgeStyle=orthogonalEdgeStyle;rounded=0;orthogonalLoop=1;jettySize=auto;html=1;entryX=0.002;entryY=0.46;entryDx=0;entryDy=0;entryPerimeter=0;" parent="1" target="ZElb9SdDPXtM1rfK_ozZ-18" edge="1">
          <mxGeometry relative="1" as="geometry">
            <mxPoint x="671" y="705" as="sourcePoint"/>
          </mxGeometry>
        </mxCell>
        <mxCell id="ZElb9SdDPXtM1rfK_ozZ-18" value="&lt;font style=&quot;font-size: 15px&quot;&gt;Publish Error Message&lt;br&gt;&lt;div style=&quot;text-align: left&quot;&gt;&lt;span style=&quot;font-size: 14px&quot;&gt;TOPIC :&amp;nbsp;&lt;/span&gt;&lt;span style=&quot;color: rgb(139 , 0 , 0) ; font-family: &amp;#34;menlo&amp;#34; , &amp;#34;monaco&amp;#34; , &amp;#34;courier new&amp;#34; , monospace ; font-size: 12px ; white-space: pre ; background-color: rgb(255 , 255 , 254)&quot;&gt;cedas-test-v1.FILE_SERVICE&lt;/span&gt;&lt;span style=&quot;font-size: 14px&quot;&gt;&lt;br&gt;Message format:&amp;nbsp;&lt;/span&gt;&lt;/div&gt;&lt;/font&gt;&lt;pre style=&quot;margin-top: 0px ; margin-bottom: 0px ; white-space: pre-wrap ; color: rgb(23 , 43 , 77) ; text-align: left ; font-size: 13px&quot;&gt;&lt;pre style=&quot;margin-top: 0px ; margin-bottom: 0px ; white-space: pre-wrap ; font-size: 14px&quot;&gt;{&lt;br&gt;  &quot;schemaVersion&quot;: &quot;0.1&quot;,&lt;/pre&gt;&lt;pre style=&quot;margin-top: 0px ; margin-bottom: 0px ; white-space: pre-wrap ; font-size: 14px&quot;&gt;&lt;pre style=&quot;margin-top: 0px ; margin-bottom: 0px ; white-space: pre-wrap&quot;&gt;  &quot;eventName&quot;: &quot;ecfr&quot;,&lt;br&gt;  &quot;eventSource&quot;: &quot;file-service&quot;,&lt;/pre&gt;  &quot;eventTime&quot;: &quot;Date().toISOString()&quot;,&lt;br&gt;  &quot;payload&quot;: {&lt;br&gt;	&quot;status&quot;: &quot;failed&quot;,&lt;/pre&gt;&lt;pre style=&quot;margin-top: 0px ; margin-bottom: 0px ; white-space: pre-wrap ; font-size: 14px&quot;&gt;	&quot;message&quot;: &quot;CRC Check failed&quot;,&lt;br&gt;&lt;/pre&gt;&lt;pre style=&quot;margin-top: 0px ; margin-bottom: 0px ; white-space: pre-wrap ; font-size: 14px&quot;&gt;	&quot;filename&quot;: &quot;&amp;lt;file_name&amp;gt;&quot;&lt;br&gt;  }&lt;br&gt;}&lt;/pre&gt;&lt;/pre&gt;" style="rounded=0;whiteSpace=wrap;html=1;" parent="1" vertex="1">
          <mxGeometry x="862" y="590" width="440" height="250" as="geometry"/>
        </mxCell>
        <mxCell id="ZElb9SdDPXtM1rfK_ozZ-19" value="&lt;font style=&quot;font-size: 15px&quot;&gt;CRC Mismatch&lt;/font&gt;" style="text;html=1;strokeColor=none;fillColor=none;align=center;verticalAlign=middle;whiteSpace=wrap;rounded=0;" parent="1" vertex="1">
          <mxGeometry x="682" y="685" width="115" height="20" as="geometry"/>
        </mxCell>
        <mxCell id="ZElb9SdDPXtM1rfK_ozZ-32" style="edgeStyle=orthogonalEdgeStyle;rounded=0;orthogonalLoop=1;jettySize=auto;html=1;" parent="1" source="ZElb9SdDPXtM1rfK_ozZ-20" edge="1">
          <mxGeometry relative="1" as="geometry">
            <mxPoint x="560" y="1140" as="targetPoint"/>
          </mxGeometry>
        </mxCell>
        <mxCell id="ZElb9SdDPXtM1rfK_ozZ-20" value="&lt;font style=&quot;font-size: 15px&quot;&gt;Publish Success Message&lt;br&gt;&lt;div style=&quot;text-align: left&quot;&gt;&lt;span style=&quot;font-size: 14px&quot;&gt;TOPIC :&amp;nbsp;&lt;/span&gt;&lt;span style=&quot;color: rgb(139 , 0 , 0) ; font-family: &amp;#34;menlo&amp;#34; , &amp;#34;monaco&amp;#34; , &amp;#34;courier new&amp;#34; , monospace ; font-size: 12px ; white-space: pre ; background-color: rgb(255 , 255 , 254)&quot;&gt;cedas-test-v1.FILE_SERVICE&lt;/span&gt;&lt;span style=&quot;font-size: 14px&quot;&gt;&lt;br&gt;Message format:&amp;nbsp;&lt;/span&gt;&lt;/div&gt;&lt;/font&gt;&lt;pre style=&quot;margin-top: 0px ; margin-bottom: 0px ; white-space: pre-wrap ; color: rgb(23 , 43 , 77) ; text-align: left ; font-size: 13px&quot;&gt;&lt;pre style=&quot;margin-top: 0px ; margin-bottom: 0px ; white-space: pre-wrap ; font-size: 14px&quot;&gt;{&lt;br&gt;  &quot;schemaVersion&quot;: &quot;0.1&quot;,&lt;br&gt;  &quot;eventName&quot;: &quot;ecfr&quot;,&lt;pre style=&quot;margin-top: 0px ; margin-bottom: 0px ; white-space: pre-wrap&quot;&gt;  &quot;eventSource&quot;: &quot;file-service&quot;,&lt;/pre&gt;  &quot;eventTime&quot;: &quot;Date().toISOString()&quot;,&lt;br&gt;  &quot;payload&quot;: {&lt;br&gt;	&quot;status&quot;: &quot;success&quot;,&lt;/pre&gt;&lt;pre style=&quot;margin-top: 0px ; margin-bottom: 0px ; white-space: pre-wrap ; font-size: 14px&quot;&gt;	&quot;message&quot;: &quot;CRC Check success&quot;,&lt;br&gt;&lt;/pre&gt;&lt;pre style=&quot;margin-top: 0px ; margin-bottom: 0px ; white-space: pre-wrap ; font-size: 14px&quot;&gt;	&quot;filename&quot;: &quot;&amp;lt;file_name&amp;gt;&quot;&lt;br&gt;  }&lt;br&gt;}&lt;/pre&gt;&lt;/pre&gt;" style="rounded=0;whiteSpace=wrap;html=1;" parent="1" vertex="1">
          <mxGeometry x="340" y="840" width="440" height="250" as="geometry"/>
        </mxCell>
        <mxCell id="ZElb9SdDPXtM1rfK_ozZ-22" value="&lt;font style=&quot;font-size: 15px&quot;&gt;CRC Match&lt;/font&gt;" style="text;html=1;strokeColor=none;fillColor=none;align=center;verticalAlign=middle;whiteSpace=wrap;rounded=0;" parent="1" vertex="1">
          <mxGeometry x="550" y="790" width="115" height="20" as="geometry"/>
        </mxCell>
        <mxCell id="ZElb9SdDPXtM1rfK_ozZ-23" style="edgeStyle=orthogonalEdgeStyle;rounded=0;orthogonalLoop=1;jettySize=auto;html=1;exitX=0.5;exitY=1;exitDx=0;exitDy=0;" parent="1" source="ZElb9SdDPXtM1rfK_ozZ-31" target="ZElb9SdDPXtM1rfK_ozZ-28" edge="1">
          <mxGeometry relative="1" as="geometry">
            <mxPoint x="560" y="1980" as="sourcePoint"/>
            <mxPoint x="560" y="2030" as="targetPoint"/>
          </mxGeometry>
        </mxCell>
        <mxCell id="ZElb9SdDPXtM1rfK_ozZ-25" style="edgeStyle=orthogonalEdgeStyle;rounded=0;orthogonalLoop=1;jettySize=auto;html=1;entryX=0.002;entryY=0.46;entryDx=0;entryDy=0;entryPerimeter=0;exitX=1;exitY=0.5;exitDx=0;exitDy=0;" parent="1" source="ZElb9SdDPXtM1rfK_ozZ-31" target="ZElb9SdDPXtM1rfK_ozZ-26" edge="1">
          <mxGeometry relative="1" as="geometry">
            <mxPoint x="671" y="1925" as="sourcePoint"/>
          </mxGeometry>
        </mxCell>
        <mxCell id="ZElb9SdDPXtM1rfK_ozZ-26" value="&lt;font style=&quot;font-size: 15px&quot;&gt;Publish Error Message&lt;br&gt;&lt;div style=&quot;text-align: left&quot;&gt;&lt;span style=&quot;font-size: 14px&quot;&gt;TOPIC :&amp;nbsp;&lt;/span&gt;&lt;span style=&quot;color: rgb(139 , 0 , 0) ; font-family: &amp;#34;menlo&amp;#34; , &amp;#34;monaco&amp;#34; , &amp;#34;courier new&amp;#34; , monospace ; font-size: 12px ; white-space: pre ; background-color: rgb(255 , 255 , 254)&quot;&gt;cedas-test-v1.FILE_SERVICE&lt;/span&gt;&lt;span style=&quot;font-size: 14px&quot;&gt;&lt;br&gt;Message format:&amp;nbsp;&lt;/span&gt;&lt;/div&gt;&lt;/font&gt;&lt;pre style=&quot;margin-top: 0px ; margin-bottom: 0px ; white-space: pre-wrap ; color: rgb(23 , 43 , 77) ; text-align: left ; font-size: 13px&quot;&gt;&lt;pre style=&quot;margin-top: 0px ; margin-bottom: 0px ; white-space: pre-wrap ; font-size: 14px&quot;&gt;{&lt;br&gt;  &quot;schemaVersion&quot;: &quot;0.1&quot;,&lt;br&gt;  &quot;eventName&quot;: &quot;ecfr&quot;,&lt;pre style=&quot;margin-top: 0px ; margin-bottom: 0px ; white-space: pre-wrap&quot;&gt;&lt;pre style=&quot;margin-top: 0px ; margin-bottom: 0px ; white-space: pre-wrap&quot;&gt;  &quot;eventSource&quot;: &quot;file-service&quot;,&lt;/pre&gt;&lt;/pre&gt;  &quot;eventTime&quot;: &quot;Date().toISOString()&quot;,&lt;br&gt;  &quot;payload&quot;: {&lt;br&gt;	&quot;status&quot;: &quot;failed&quot;,&lt;/pre&gt;&lt;pre style=&quot;margin-top: 0px ; margin-bottom: 0px ; white-space: pre-wrap ; font-size: 14px&quot;&gt;	&quot;message&quot;: &quot;File Parse failed - Error:&amp;lt;message&amp;gt;&quot;,&lt;br&gt;&lt;/pre&gt;&lt;pre style=&quot;margin-top: 0px ; margin-bottom: 0px ; white-space: pre-wrap ; font-size: 14px&quot;&gt;	&quot;filename&quot;: &quot;&amp;lt;file_name&amp;gt;,&amp;lt;raw_file_name&amp;gt;&quot;&lt;br&gt;  }&lt;br&gt;}&lt;/pre&gt;&lt;/pre&gt;" style="rounded=0;whiteSpace=wrap;html=1;" parent="1" vertex="1">
          <mxGeometry x="832" y="1810" width="510" height="250" as="geometry"/>
        </mxCell>
        <mxCell id="ZElb9SdDPXtM1rfK_ozZ-27" value="&lt;span style=&quot;font-size: 15px&quot;&gt;Fail&lt;/span&gt;" style="text;html=1;strokeColor=none;fillColor=none;align=center;verticalAlign=middle;whiteSpace=wrap;rounded=0;" parent="1" vertex="1">
          <mxGeometry x="682" y="1905" width="115" height="20" as="geometry"/>
        </mxCell>
        <mxCell id="ZElb9SdDPXtM1rfK_ozZ-40" style="edgeStyle=orthogonalEdgeStyle;rounded=0;orthogonalLoop=1;jettySize=auto;html=1;entryX=0.5;entryY=0;entryDx=0;entryDy=0;" parent="1" source="ZElb9SdDPXtM1rfK_ozZ-28" target="ZElb9SdDPXtM1rfK_ozZ-39" edge="1">
          <mxGeometry relative="1" as="geometry"/>
        </mxCell>
        <mxCell id="ZElb9SdDPXtM1rfK_ozZ-28" value="&lt;font style=&quot;font-size: 15px&quot;&gt;Publish Success Message&lt;br&gt;&lt;div style=&quot;text-align: left&quot;&gt;&lt;span style=&quot;font-size: 14px&quot;&gt;TOPIC :&amp;nbsp;&lt;/span&gt;&lt;span style=&quot;color: rgb(139 , 0 , 0) ; font-family: &amp;#34;menlo&amp;#34; , &amp;#34;monaco&amp;#34; , &amp;#34;courier new&amp;#34; , monospace ; font-size: 12px ; white-space: pre ; background-color: rgb(255 , 255 , 254)&quot;&gt;cedas-test-v1.FILE_SERVICE&lt;/span&gt;&lt;span style=&quot;font-size: 14px&quot;&gt;&lt;br&gt;Message format:&amp;nbsp;&lt;/span&gt;&lt;/div&gt;&lt;/font&gt;&lt;pre style=&quot;margin-top: 0px ; margin-bottom: 0px ; white-space: pre-wrap ; color: rgb(23 , 43 , 77) ; text-align: left ; font-size: 13px&quot;&gt;&lt;pre style=&quot;margin-top: 0px ; margin-bottom: 0px ; white-space: pre-wrap ; font-size: 14px&quot;&gt;{&lt;br&gt;  &quot;schemaVersion&quot;: &quot;0.1&quot;,&lt;br&gt;  &quot;eventName&quot;: &quot;ecfr&quot;,&lt;pre style=&quot;margin-top: 0px ; margin-bottom: 0px ; white-space: pre-wrap&quot;&gt;&lt;pre style=&quot;margin-top: 0px ; margin-bottom: 0px ; white-space: pre-wrap&quot;&gt;  &quot;eventSource&quot;: &quot;file-service&quot;,&lt;/pre&gt;&lt;/pre&gt;  &quot;eventTime&quot;: &quot;Date().toISOString()&quot;,&lt;br&gt;  &quot;payload&quot;: {&lt;br&gt;	&quot;status&quot;: &quot;success&quot;,&lt;/pre&gt;&lt;pre style=&quot;margin-top: 0px ; margin-bottom: 0px ; white-space: pre-wrap ; font-size: 14px&quot;&gt;	&quot;message&quot;: &quot;File parsed successfully&quot;,&lt;br&gt;&lt;/pre&gt;&lt;pre style=&quot;margin-top: 0px ; margin-bottom: 0px ; white-space: pre-wrap ; font-size: 14px&quot;&gt;	&quot;filename&quot;: &quot;&amp;lt;file_name&amp;gt;,&amp;lt;raw_file_name&amp;gt;&quot;&lt;br&gt;  }&lt;br&gt;}&lt;/pre&gt;&lt;/pre&gt;" style="rounded=0;whiteSpace=wrap;html=1;" parent="1" vertex="1">
          <mxGeometry x="340" y="2040" width="440" height="250" as="geometry"/>
        </mxCell>
        <mxCell id="ZElb9SdDPXtM1rfK_ozZ-31" value="&lt;font style=&quot;font-size: 15px&quot;&gt;Parse Files&lt;/font&gt;" style="rounded=0;whiteSpace=wrap;html=1;" parent="1" vertex="1">
          <mxGeometry x="500" y="1895" width="120" height="60" as="geometry"/>
        </mxCell>
        <mxCell id="ZElb9SdDPXtM1rfK_ozZ-33" style="edgeStyle=orthogonalEdgeStyle;rounded=0;orthogonalLoop=1;jettySize=auto;html=1;exitX=0.5;exitY=1;exitDx=0;exitDy=0;" parent="1" source="ZElb9SdDPXtM1rfK_ozZ-39" target="ZElb9SdDPXtM1rfK_ozZ-37" edge="1">
          <mxGeometry relative="1" as="geometry">
            <mxPoint x="560" y="2530" as="sourcePoint"/>
          </mxGeometry>
        </mxCell>
        <mxCell id="ZElb9SdDPXtM1rfK_ozZ-34" style="edgeStyle=orthogonalEdgeStyle;rounded=0;orthogonalLoop=1;jettySize=auto;html=1;entryX=0.002;entryY=0.48;entryDx=0;entryDy=0;entryPerimeter=0;exitX=1;exitY=0.5;exitDx=0;exitDy=0;" parent="1" source="ZElb9SdDPXtM1rfK_ozZ-39" target="ZElb9SdDPXtM1rfK_ozZ-35" edge="1">
          <mxGeometry relative="1" as="geometry">
            <mxPoint x="671" y="2475" as="sourcePoint"/>
          </mxGeometry>
        </mxCell>
        <mxCell id="ZElb9SdDPXtM1rfK_ozZ-35" value="&lt;font style=&quot;font-size: 15px&quot;&gt;Publish Error Message&lt;br&gt;&lt;div style=&quot;text-align: left&quot;&gt;&lt;span style=&quot;font-size: 14px&quot;&gt;TOPIC :&amp;nbsp;&lt;/span&gt;&lt;span style=&quot;color: rgb(139 , 0 , 0) ; font-family: &amp;#34;menlo&amp;#34; , &amp;#34;monaco&amp;#34; , &amp;#34;courier new&amp;#34; , monospace ; font-size: 12px ; white-space: pre ; background-color: rgb(255 , 255 , 254)&quot;&gt;cedas-test-v1.FILE_SERVICE&lt;/span&gt;&lt;span style=&quot;font-size: 14px&quot;&gt;&lt;br&gt;Message format:&amp;nbsp;&lt;/span&gt;&lt;/div&gt;&lt;/font&gt;&lt;pre style=&quot;margin-top: 0px ; margin-bottom: 0px ; white-space: pre-wrap ; color: rgb(23 , 43 , 77) ; text-align: left ; font-size: 13px&quot;&gt;&lt;pre style=&quot;margin-top: 0px ; margin-bottom: 0px ; white-space: pre-wrap ; font-size: 14px&quot;&gt;{&lt;br&gt;  &quot;schemaVersion&quot;: &quot;0.1&quot;,&lt;br&gt;  &quot;eventName&quot;: &quot;ecfr&quot;,&lt;pre style=&quot;margin-top: 0px ; margin-bottom: 0px ; white-space: pre-wrap&quot;&gt;&lt;pre style=&quot;margin-top: 0px ; margin-bottom: 0px ; white-space: pre-wrap&quot;&gt;  &quot;eventSource&quot;: &quot;file-service&quot;,&lt;/pre&gt;&lt;/pre&gt;  &quot;eventTime&quot;: &quot;Date().toISOString()&quot;,&lt;br&gt;  &quot;payload&quot;: {&lt;br&gt;	&quot;status&quot;: &quot;failed&quot;,&lt;/pre&gt;&lt;pre style=&quot;margin-top: 0px ; margin-bottom: 0px ; white-space: pre-wrap ; font-size: 14px&quot;&gt;	&quot;message&quot;: &quot;File failed to store - Error:&amp;lt;message&amp;gt;&quot;,&lt;br&gt;&lt;/pre&gt;&lt;pre style=&quot;margin-top: 0px ; margin-bottom: 0px ; white-space: pre-wrap ; font-size: 14px&quot;&gt;	&quot;filename&quot;: &quot;&amp;lt;file_name&amp;gt;&quot;&lt;br&gt;  }&lt;br&gt;}&lt;/pre&gt;&lt;/pre&gt;" style="rounded=0;whiteSpace=wrap;html=1;" parent="1" vertex="1">
          <mxGeometry x="850" y="2250" width="510" height="250" as="geometry"/>
        </mxCell>
        <mxCell id="ZElb9SdDPXtM1rfK_ozZ-36" value="&lt;span style=&quot;font-size: 15px&quot;&gt;Fail&lt;/span&gt;" style="text;html=1;strokeColor=none;fillColor=none;align=center;verticalAlign=middle;whiteSpace=wrap;rounded=0;" parent="1" vertex="1">
          <mxGeometry x="682" y="2455" width="115" height="20" as="geometry"/>
        </mxCell>
        <mxCell id="ZElb9SdDPXtM1rfK_ozZ-42" style="edgeStyle=orthogonalEdgeStyle;rounded=0;orthogonalLoop=1;jettySize=auto;html=1;entryX=0.484;entryY=-0.016;entryDx=0;entryDy=0;entryPerimeter=0;" parent="1" target="ZElb9SdDPXtM1rfK_ozZ-41" edge="1">
          <mxGeometry relative="1" as="geometry">
            <mxPoint x="567" y="2830" as="sourcePoint"/>
          </mxGeometry>
        </mxCell>
        <mxCell id="ZElb9SdDPXtM1rfK_ozZ-37" value="&lt;font style=&quot;font-size: 15px&quot;&gt;Publish Success Message&lt;br&gt;&lt;div style=&quot;text-align: left&quot;&gt;&lt;span style=&quot;font-size: 14px&quot;&gt;TOPIC :&amp;nbsp;&lt;/span&gt;&lt;span style=&quot;color: rgb(139 , 0 , 0) ; font-family: &amp;#34;menlo&amp;#34; , &amp;#34;monaco&amp;#34; , &amp;#34;courier new&amp;#34; , monospace ; font-size: 12px ; white-space: pre ; background-color: rgb(255 , 255 , 254)&quot;&gt;cedas-test-v1.FILE_SERVICE&lt;/span&gt;&lt;span style=&quot;font-size: 14px&quot;&gt;&lt;br&gt;Message format:&amp;nbsp;&lt;/span&gt;&lt;/div&gt;&lt;/font&gt;&lt;pre style=&quot;margin-top: 0px ; margin-bottom: 0px ; white-space: pre-wrap ; color: rgb(23 , 43 , 77) ; text-align: left ; font-size: 13px&quot;&gt;&lt;pre style=&quot;margin-top: 0px ; margin-bottom: 0px ; white-space: pre-wrap ; font-size: 14px&quot;&gt;{&lt;br&gt;  &quot;schemaVersion&quot;: &quot;0.1&quot;,&lt;br&gt;  &quot;eventName&quot;: &quot;ecfr&quot;,&lt;pre style=&quot;margin-top: 0px ; margin-bottom: 0px ; white-space: pre-wrap&quot;&gt;&lt;pre style=&quot;margin-top: 0px ; margin-bottom: 0px ; white-space: pre-wrap&quot;&gt;  &quot;eventSource&quot;: &quot;file-service&quot;,&lt;/pre&gt;&lt;/pre&gt;  &quot;eventTime&quot;: &quot;Date().toISOString()&quot;,&lt;br&gt;  &quot;payload&quot;: {&lt;br&gt;	&quot;status&quot;: &quot;success&quot;,&lt;/pre&gt;&lt;pre style=&quot;margin-top: 0px ; margin-bottom: 0px ; white-space: pre-wrap ; font-size: 14px&quot;&gt;	&quot;message&quot;: &quot;File stored successfully&quot;,&lt;br&gt;&lt;/pre&gt;&lt;pre style=&quot;margin-top: 0px ; margin-bottom: 0px ; white-space: pre-wrap ; font-size: 14px&quot;&gt;	&quot;filename&quot;: &quot;&amp;lt;file_name&amp;gt;&quot;&lt;br&gt;  }&lt;br&gt;}&lt;/pre&gt;&lt;/pre&gt;" style="rounded=0;whiteSpace=wrap;html=1;" parent="1" vertex="1">
          <mxGeometry x="340" y="2440" width="440" height="250" as="geometry"/>
        </mxCell>
        <mxCell id="ZElb9SdDPXtM1rfK_ozZ-38" value="&lt;font style=&quot;font-size: 15px&quot;&gt;Success&lt;/font&gt;" style="text;html=1;strokeColor=none;fillColor=none;align=center;verticalAlign=middle;whiteSpace=wrap;rounded=0;" parent="1" vertex="1">
          <mxGeometry x="560" y="2590" width="115" height="20" as="geometry"/>
        </mxCell>
        <mxCell id="ZElb9SdDPXtM1rfK_ozZ-39" value="&lt;font style=&quot;font-size: 15px&quot;&gt;Store File&lt;/font&gt;" style="rounded=0;whiteSpace=wrap;html=1;" parent="1" vertex="1">
          <mxGeometry x="500" y="2340" width="120" height="60" as="geometry"/>
        </mxCell>
        <mxCell id="ZElb9SdDPXtM1rfK_ozZ-48" style="edgeStyle=orthogonalEdgeStyle;rounded=0;orthogonalLoop=1;jettySize=auto;html=1;entryX=0.558;entryY=-0.033;entryDx=0;entryDy=0;entryPerimeter=0;" parent="1" source="ZElb9SdDPXtM1rfK_ozZ-41" target="ZElb9SdDPXtM1rfK_ozZ-45" edge="1">
          <mxGeometry relative="1" as="geometry"/>
        </mxCell>
        <mxCell id="ZElb9SdDPXtM1rfK_ozZ-41" value="&lt;font style=&quot;font-size: 15px&quot;&gt;Publish Success Message&lt;br&gt;&lt;div style=&quot;text-align: left&quot;&gt;&lt;span style=&quot;font-size: 14px&quot;&gt;TOPIC :&amp;nbsp;&lt;/span&gt;&lt;span style=&quot;color: rgb(139 , 0 , 0) ; font-family: &amp;#34;menlo&amp;#34; , &amp;#34;monaco&amp;#34; , &amp;#34;courier new&amp;#34; , monospace ; font-size: 12px ; white-space: pre ; background-color: rgb(255 , 255 , 254)&quot;&gt;cedas-test-v1.FILE_SERVICE&lt;/span&gt;&lt;span style=&quot;font-size: 14px&quot;&gt;&lt;br&gt;Message format:&amp;nbsp;&lt;/span&gt;&lt;/div&gt;&lt;/font&gt;&lt;pre style=&quot;margin-top: 0px ; margin-bottom: 0px ; white-space: pre-wrap ; color: rgb(23 , 43 , 77) ; text-align: left ; font-size: 13px&quot;&gt;&lt;pre style=&quot;margin-top: 0px ; margin-bottom: 0px ; white-space: pre-wrap ; font-size: 14px&quot;&gt;{&lt;br&gt;  &quot;schemaVersion&quot;: &quot;0.1&quot;,&lt;br&gt;  &quot;eventName&quot;: &quot;ecfr&quot;,&lt;pre style=&quot;margin-top: 0px ; margin-bottom: 0px ; white-space: pre-wrap&quot;&gt;&lt;pre style=&quot;margin-top: 0px ; margin-bottom: 0px ; white-space: pre-wrap&quot;&gt;  &quot;eventSource&quot;: &quot;file-service&quot;,&lt;/pre&gt;&lt;/pre&gt;  &quot;eventTime&quot;: &quot;Date().toISOString()&quot;,&lt;br&gt;  &quot;payload&quot;: {&lt;br&gt;	&quot;status&quot;: &quot;success&quot;,&lt;/pre&gt;&lt;pre style=&quot;margin-top: 0px ; margin-bottom: 0px ; white-space: pre-wrap ; font-size: 14px&quot;&gt;	&quot;message&quot;: &quot;File stored successfully&quot;,&lt;br&gt;&lt;/pre&gt;&lt;pre style=&quot;margin-top: 0px ; margin-bottom: 0px ; white-space: pre-wrap ; font-size: 14px&quot;&gt;	&quot;filename&quot;: &quot;&amp;lt;file_name&amp;gt;&quot;&lt;br&gt;  }&lt;br&gt;}&lt;/pre&gt;&lt;/pre&gt;" style="rounded=0;whiteSpace=wrap;html=1;" parent="1" vertex="1">
          <mxGeometry x="347" y="3000" width="440" height="250" as="geometry"/>
        </mxCell>
        <mxCell id="ZElb9SdDPXtM1rfK_ozZ-44" style="edgeStyle=orthogonalEdgeStyle;rounded=0;orthogonalLoop=1;jettySize=auto;html=1;entryX=0.438;entryY=-0.005;entryDx=0;entryDy=0;entryPerimeter=0;" parent="1" source="ZElb9SdDPXtM1rfK_ozZ-43" target="ZElb9SdDPXtM1rfK_ozZ-1" edge="1">
          <mxGeometry relative="1" as="geometry"/>
        </mxCell>
        <mxCell id="ZElb9SdDPXtM1rfK_ozZ-43" value="&lt;font style=&quot;font-size: 15px&quot;&gt;START&lt;/font&gt;" style="rounded=1;whiteSpace=wrap;html=1;" parent="1" vertex="1">
          <mxGeometry x="490" width="120" height="60" as="geometry"/>
        </mxCell>
        <mxCell id="ZElb9SdDPXtM1rfK_ozZ-45" value="&lt;font style=&quot;font-size: 15px&quot;&gt;END&lt;/font&gt;" style="rounded=1;whiteSpace=wrap;html=1;" parent="1" vertex="1">
          <mxGeometry x="500" y="3300" width="120" height="60" as="geometry"/>
        </mxCell>
        <mxCell id="ZElb9SdDPXtM1rfK_ozZ-49" value="&lt;font style=&quot;font-size: 15px&quot;&gt;Publish Error Message When any exception happen&lt;br&gt;&lt;div style=&quot;text-align: left&quot;&gt;&lt;span style=&quot;font-size: 14px&quot;&gt;TOPIC :&amp;nbsp;&lt;/span&gt;&lt;span style=&quot;color: rgb(139 , 0 , 0) ; font-family: &amp;#34;menlo&amp;#34; , &amp;#34;monaco&amp;#34; , &amp;#34;courier new&amp;#34; , monospace ; font-size: 12px ; white-space: pre ; background-color: rgb(255 , 255 , 254)&quot;&gt;cedas-test-v1.FILE_SERVICE&lt;/span&gt;&lt;span style=&quot;font-size: 14px&quot;&gt;&lt;br&gt;Message format:&amp;nbsp;&lt;/span&gt;&lt;/div&gt;&lt;/font&gt;&lt;pre style=&quot;margin-top: 0px ; margin-bottom: 0px ; white-space: pre-wrap ; color: rgb(23 , 43 , 77) ; text-align: left ; font-size: 13px&quot;&gt;&lt;pre style=&quot;margin-top: 0px ; margin-bottom: 0px ; white-space: pre-wrap ; font-size: 14px&quot;&gt;{&lt;br&gt;  &quot;schemaVersion&quot;: &quot;0.1&quot;,&lt;br&gt;  &quot;eventName&quot;: &quot;ecfr&quot;,&lt;pre style=&quot;margin-top: 0px ; margin-bottom: 0px ; white-space: pre-wrap&quot;&gt;&lt;pre style=&quot;margin-top: 0px ; margin-bottom: 0px ; white-space: pre-wrap&quot;&gt;  &quot;eventSource&quot;: &quot;file-service&quot;,&lt;/pre&gt;&lt;/pre&gt;  &quot;eventTime&quot;: &quot;Date().toISOString()&quot;,&lt;br&gt;  &quot;payload&quot;: {&lt;br&gt;	&quot;status&quot;: &quot;error&quot;,&lt;/pre&gt;&lt;pre style=&quot;margin-top: 0px ; margin-bottom: 0px ; white-space: pre-wrap ; font-size: 14px&quot;&gt;	&quot;message&quot;: &quot;File processing failed - Error:&amp;lt;message&amp;gt;&quot;,&lt;br&gt;&lt;/pre&gt;&lt;pre style=&quot;margin-top: 0px ; margin-bottom: 0px ; white-space: pre-wrap ; font-size: 14px&quot;&gt;	&quot;filename&quot;: &quot;&amp;lt;file_name&amp;gt;&quot;&lt;br&gt;  }&lt;br&gt;}&lt;/pre&gt;&lt;/pre&gt;" style="rounded=0;whiteSpace=wrap;html=1;" parent="1" vertex="1">
          <mxGeometry x="900" y="3000" width="570" height="250" as="geometry"/>
        </mxCell>
        <mxCell id="fc-QDYUDCDqkRIU63nJB-3" value="&lt;font style=&quot;font-size: 15px&quot;&gt;Success&lt;br&gt;&lt;/font&gt;" style="text;html=1;strokeColor=none;fillColor=none;align=center;verticalAlign=middle;whiteSpace=wrap;rounded=0;" vertex="1" parent="1">
          <mxGeometry x="552" y="2024" width="150" height="20" as="geometry"/>
        </mxCell>
        <mxCell id="fc-QDYUDCDqkRIU63nJB-6" value="&lt;font style=&quot;font-size: 15px&quot;&gt;Unzip Tar file&lt;/font&gt;" style="rounded=1;whiteSpace=wrap;html=1;" vertex="1" parent="1">
          <mxGeometry x="500" y="1140" width="120" height="60" as="geometry"/>
        </mxCell>
        <mxCell id="fc-QDYUDCDqkRIU63nJB-7" style="edgeStyle=orthogonalEdgeStyle;rounded=0;orthogonalLoop=1;jettySize=auto;html=1;exitX=0.5;exitY=1;exitDx=0;exitDy=0;" edge="1" parent="1" source="fc-QDYUDCDqkRIU63nJB-6" target="fc-QDYUDCDqkRIU63nJB-16">
          <mxGeometry relative="1" as="geometry">
            <mxPoint x="570" y="1118" as="sourcePoint"/>
            <mxPoint x="560" y="1370" as="targetPoint"/>
          </mxGeometry>
        </mxCell>
        <mxCell id="fc-QDYUDCDqkRIU63nJB-8" value="&lt;font style=&quot;font-size: 15px&quot;&gt;Publish Error Message&lt;br&gt;&lt;div style=&quot;text-align: left&quot;&gt;&lt;span style=&quot;font-size: 14px&quot;&gt;TOPIC :&amp;nbsp;&lt;/span&gt;&lt;span style=&quot;color: rgb(139 , 0 , 0) ; font-family: &amp;#34;menlo&amp;#34; , &amp;#34;monaco&amp;#34; , &amp;#34;courier new&amp;#34; , monospace ; font-size: 12px ; white-space: pre ; background-color: rgb(255 , 255 , 254)&quot;&gt;cedas-test-v1.FILE_SERVICE&lt;/span&gt;&lt;span style=&quot;font-size: 14px&quot;&gt;&lt;br&gt;Message format:&amp;nbsp;&lt;/span&gt;&lt;/div&gt;&lt;/font&gt;&lt;pre style=&quot;margin-top: 0px ; margin-bottom: 0px ; white-space: pre-wrap ; color: rgb(23 , 43 , 77) ; text-align: left ; font-size: 13px&quot;&gt;&lt;pre style=&quot;margin-top: 0px ; margin-bottom: 0px ; white-space: pre-wrap ; font-size: 14px&quot;&gt;{&lt;br&gt;  &quot;schemaVersion&quot;: &quot;0.1&quot;,&lt;br&gt;  &quot;eventName&quot;: &quot;ecfr&quot;,&lt;pre style=&quot;margin-top: 0px ; margin-bottom: 0px ; white-space: pre-wrap&quot;&gt;&lt;pre style=&quot;margin-top: 0px ; margin-bottom: 0px ; white-space: pre-wrap&quot;&gt;  &quot;eventSource&quot;: &quot;file-service&quot;,&lt;/pre&gt;&lt;/pre&gt;  &quot;eventTime&quot;: &quot;Date().toISOString()&quot;,&lt;br&gt;  &quot;payload&quot;: {&lt;br&gt;	&quot;status&quot;: &quot;failed&quot;,&lt;/pre&gt;&lt;pre style=&quot;margin-top: 0px ; margin-bottom: 0px ; white-space: pre-wrap ; font-size: 14px&quot;&gt;	&quot;message&quot;: &quot;File cannot be extracted - Error:&amp;lt;message&amp;gt;&quot;,&lt;br&gt;&lt;/pre&gt;&lt;pre style=&quot;margin-top: 0px ; margin-bottom: 0px ; white-space: pre-wrap ; font-size: 14px&quot;&gt;	&quot;filename&quot;: &quot;&amp;lt;file_name&amp;gt;,&amp;lt;raw_file_name&amp;gt;&quot;&lt;br&gt;  }&lt;br&gt;}&lt;/pre&gt;&lt;/pre&gt;" style="rounded=0;whiteSpace=wrap;html=1;" vertex="1" parent="1">
          <mxGeometry x="822" y="1045" width="510" height="250" as="geometry"/>
        </mxCell>
        <mxCell id="fc-QDYUDCDqkRIU63nJB-9" value="&lt;span style=&quot;font-size: 15px&quot;&gt;Fail&lt;/span&gt;" style="text;html=1;strokeColor=none;fillColor=none;align=center;verticalAlign=middle;whiteSpace=wrap;rounded=0;" vertex="1" parent="1">
          <mxGeometry x="672" y="1140" width="115" height="20" as="geometry"/>
        </mxCell>
        <mxCell id="fc-QDYUDCDqkRIU63nJB-10" style="edgeStyle=orthogonalEdgeStyle;rounded=0;orthogonalLoop=1;jettySize=auto;html=1;exitX=1;exitY=0.5;exitDx=0;exitDy=0;" edge="1" parent="1" source="fc-QDYUDCDqkRIU63nJB-6" target="fc-QDYUDCDqkRIU63nJB-8">
          <mxGeometry relative="1" as="geometry">
            <mxPoint x="630" y="1170" as="sourcePoint"/>
            <mxPoint x="801.02" y="1169.5" as="targetPoint"/>
          </mxGeometry>
        </mxCell>
        <mxCell id="fc-QDYUDCDqkRIU63nJB-15" value="" style="html=1;whiteSpace=wrap;rounded=1" vertex="1" parent="1">
          <mxGeometry x="82.5" y="1380" width="955" height="230" as="geometry"/>
        </mxCell>
        <mxCell id="fc-QDYUDCDqkRIU63nJB-16" value="" style="html=1;shape=mxgraph.bpmn.loop;outlineConnect=0;" vertex="1" parent="fc-QDYUDCDqkRIU63nJB-15">
          <mxGeometry x="0.5" y="1" width="49.5" height="55" relative="1" as="geometry">
            <mxPoint x="-24.75" y="-230" as="offset"/>
          </mxGeometry>
        </mxCell>
        <mxCell id="fc-QDYUDCDqkRIU63nJB-18" value="&lt;font style=&quot;font-size: 15px&quot;&gt;Loop for every raw file&lt;/font&gt;" style="text;html=1;strokeColor=none;fillColor=none;align=center;verticalAlign=middle;whiteSpace=wrap;rounded=0;" vertex="1" parent="1">
          <mxGeometry x="565" y="1300" width="150" height="20" as="geometry"/>
        </mxCell>
      </root>
    </mxGraphModel>
  </diagram>
</mxfile>
